<svg width="45.999634" height="55.999878" viewBox="0 0 45.9996 55.9999" fill="none" xmlns="http://www.w3.org/2000/svg" xmlns:xlink="http://www.w3.org/1999/xlink">
	<desc>
			Created with Pixso.
	</desc>
	<defs/>
	<path id="Union" d="M38.7 22.12C39.47 15.55 40.2 9.34 45.99 4C19.5 3.99 11.84 12.12 7.99 17.99C-0.55 31.03 7.08 43.67 8.71 46.08C7.76 47.96 6.84 49.82 5.96 51.59C5.28 52.97 4.63 54.3 4 55.56L4.88 55.99C5.51 54.73 6.17 53.39 6.86 52C7.71 50.28 8.59 48.49 9.51 46.68C12.1 47.54 23.96 50.86 31.5 41.99C37.15 35.34 37.95 28.56 38.7 22.12Z" fill="#F0EBFF" fill-opacity="1.000000" fill-rule="evenodd"/>
	<path id="Union" d="M5.23 41.05C9.18 33.25 13.68 25.09 18.26 19.99L19 20.65C14.43 25.73 9.93 33.95 5.96 41.77C6.34 41.9 6.88 42.06 7.56 42.23C8.95 42.57 10.89 42.94 13.08 43C17.47 43.12 22.75 42.04 26.73 37.35C32.19 30.92 32.96 24.4 33.72 17.94L33.73 17.81C34.41 12 35.12 6.18 39.61 1.02C27.82 1.25 20.12 3.18 14.94 5.69C9.44 8.36 6.69 11.71 4.83 14.54C0.28 21.49 0.51 28.3 1.9 33.42C2.59 35.99 3.57 38.12 4.38 39.6C4.7 40.19 4.99 40.68 5.23 41.05ZM4.71 42.08C3.08 39.67 -4.55 27.03 3.99 13.99C7.77 8.23 15.22 0.29 40.55 0C41.02 0 41.51 0 41.99 0C41.64 0.33 41.3 0.66 40.97 1C36.11 6.12 35.42 11.96 34.7 18.12C33.95 24.56 33.15 31.34 27.5 37.99C19.96 46.86 8.1 43.54 5.51 42.68C4.59 44.49 3.71 46.28 2.86 48C2.17 49.39 1.51 50.73 0.88 51.99L0 51.56C0.63 50.3 1.28 48.97 1.96 47.59C2.84 45.82 3.76 43.96 4.71 42.08Z" fill="#7859CF" fill-opacity="1.000000" fill-rule="evenodd"/>
</svg>
