<svg width="52.000000" height="56.000000" viewBox="0 0 52 56" fill="none" xmlns="http://www.w3.org/2000/svg" xmlns:xlink="http://www.w3.org/1999/xlink">
	<desc>
			Created with Pixso.
	</desc>
	<defs/>
	<path id="Rectangle 39" d="M4 4L52 4L48 48L28 56L8 48L4 4Z" fill="#F0EBFF" fill-opacity="1.000000" fill-rule="nonzero"/>
	<path id="Union" d="M1 0L0 0L0.09 1L4 44L24 52L44 44L47.9 1L48 0L46.99 0L1 0ZM1.09 1L1.45 5L5 5L5.5 5L6 5L6.9 5L10.7 5L14.5 5L18.29 5L22.1 5L25.9 5L29.7 5L33.5 5L37.3 5L41.1 5L41.99 5L42.49 5L43 5L46.54 5L46.9 1L1.09 1ZM41.9 6L41.1 6L37.3 6L33.5 6L29.7 6L25.9 6L22.1 6L18.29 6L14.5 6L10.7 6L6.9 6L6.09 6L6.19 7.13L5.69 7.17L5.19 7.22L5.08 6L1.54 6L4.94 43.29L24 50.92L43.05 43.29L46.45 6L42.91 6L42.8 7.22L42.3 7.17L41.8 7.13L41.9 6ZM6.09 11.61L5.59 11.66L5.98 16.1L6.48 16.06L6.98 16.01L6.58 11.57L6.09 11.61ZM6.88 20.5L6.38 20.54L6.78 24.99L7.27 24.94L7.77 24.9L7.38 20.45L6.88 20.5ZM7.67 29.38L7.17 29.43L7.57 33.87L8.07 33.83L8.56 33.78L8.17 29.34L7.67 29.38ZM8.46 38.27L7.96 38.31L8.16 40.53L10.14 41.34L10.33 40.88L10.52 40.42L9.1 39.84L8.96 38.22L8.46 38.27ZM14.29 42.49L14.1 42.96L18.06 44.57L18.25 44.11L18.44 43.65L14.48 42.03L14.29 42.49ZM22.2 45.72L22.02 46.19L24 47L25.97 46.19L25.79 45.72L25.6 45.26L24 45.91L22.39 45.26L22.2 45.72ZM29.74 44.11L29.93 44.57L33.89 42.96L33.7 42.49L33.51 42.03L29.55 43.65L29.74 44.11ZM37.66 40.88L37.85 41.34L39.83 40.53L40.03 38.31L39.53 38.27L39.03 38.22L38.89 39.84L37.47 40.42L37.66 40.88ZM39.92 33.83L40.42 33.87L40.82 29.43L40.32 29.38L39.82 29.34L39.43 33.78L39.92 33.83ZM40.72 24.94L41.21 24.99L41.61 20.54L41.11 20.5L40.61 20.45L40.22 24.9L40.72 24.94ZM41.51 16.06L42.01 16.1L42.4 11.66L41.9 11.61L41.41 11.57L41.01 16.01L41.51 16.06Z" fill="#7859CF" fill-opacity="1.000000" fill-rule="evenodd"/>
</svg>
