<svg width="16.000000" height="16.000000" viewBox="0 0 16 16" fill="none" xmlns="http://www.w3.org/2000/svg" xmlns:xlink="http://www.w3.org/1999/xlink">
	<desc>
			Created with Pixso.
	</desc>
	<defs/>
	<path id="user" d="M10.66 4C10.66 5.47 9.47 6.66 8 6.66C6.52 6.66 5.33 5.47 5.33 4C5.33 2.52 6.52 1.33 8 1.33C9.47 1.33 10.66 2.52 10.66 4ZM12 4C12 6.2 10.2 8 8 8C5.79 8 4 6.2 4 4C4 1.79 5.79 0 8 0C10.2 0 12 1.79 12 4ZM3.19 12.31C4.43 11.27 6.16 10.66 8 10.66C9.83 10.66 11.56 11.27 12.8 12.31C14.03 13.33 14.66 14.67 14.66 16L16 16C16 14.23 15.15 12.53 13.65 11.28C12.15 10.03 10.12 9.33 8 9.33C5.87 9.33 3.84 10.03 2.34 11.28C0.84 12.53 0 14.23 0 16L1.33 16C1.33 14.67 1.96 13.33 3.19 12.31Z" fill="#333333" fill-opacity="1.000000" fill-rule="evenodd"/>
</svg>
