<svg width="20.000000" height="20.000000" viewBox="0 0 20 20" fill="none" xmlns="http://www.w3.org/2000/svg" xmlns:xlink="http://www.w3.org/1999/xlink">
	<desc>
			Created with Pixso.
	</desc>
	<defs/>
	<path id="ok" d="M1.4 1.39C0 2.81 0 5.07 0 9.6L0 10.39L0 10.51C-0.01 14.97 -0.01 17.21 1.4 18.6C2.81 20 5.07 20 9.59 20L10.4 20L10.51 20C14.96 20 17.21 20 18.6 18.6C20 17.18 20 14.92 20 10.39L20 9.6L20 9.48C20 5.03 20 2.78 18.6 1.39C17.18 0 14.92 0 10.4 0L9.59 0L9.48 0C5.03 0 2.78 -0.01 1.4 1.39ZM10.01 10.19C11.68 10.19 13.04 8.83 13.04 7.16C13.04 5.5 11.68 4.14 10.01 4.14C8.33 4.14 6.97 5.5 6.97 7.16C6.97 8.83 8.33 10.19 10.01 10.19ZM10.01 5.91C10.7 5.91 11.27 6.47 11.27 7.16C11.27 7.85 10.7 8.42 10.01 8.42C9.33 8.42 8.76 7.85 8.76 7.16C8.75 6.47 9.31 5.91 10.01 5.91ZM11.23 12.68C11.85 12.53 12.44 12.3 12.99 11.95C13.41 11.7 13.53 11.14 13.26 10.72C13.01 10.3 12.44 10.17 12.03 10.45C10.79 11.23 9.18 11.23 7.95 10.45C7.53 10.19 6.99 10.3 6.71 10.72C6.48 11.14 6.61 11.68 7.02 11.93C7.57 12.28 8.16 12.51 8.78 12.66L7.09 14.34C6.75 14.69 6.75 15.25 7.09 15.6C7.28 15.78 7.49 15.85 7.73 15.85C7.97 15.85 8.18 15.76 8.36 15.6L10.03 13.93L11.7 15.6C12.05 15.94 12.61 15.94 12.95 15.6C13.3 15.25 13.3 14.69 12.95 14.34L11.23 12.68Z" fill="#BDBDBD" fill-opacity="1.000000" fill-rule="evenodd"/>
</svg>
