<svg width="32.000000" height="36.000000" viewBox="0 0 32 36" fill="none" xmlns="http://www.w3.org/2000/svg" xmlns:xlink="http://www.w3.org/1999/xlink">
	<desc>
			Created with Pixso.
	</desc>
	<defs/>
	<path id="2" d="M32 18C32 20.87 31.4 23.59 30.33 26L17 26C19.46 22.22 22 17.66 22 13C22 7 17.93 1.95 12.41 0.45C13.56 0.15 14.76 0 16 0C24.83 0 32 8.05 32 18ZM18 13C18 8.02 13.97 4 9 4C2.34 4 0 12.5 0 18C0 27.94 7.16 36 16 36C20.73 36 24.99 33.68 27.92 30L9 30C9.35 29.55 9.72 29.08 10.09 28.61C13.61 24.2 18 18.69 18 13Z" fill="#7859CF" fill-opacity="1.000000" fill-rule="evenodd"/>
</svg>
