<svg width="82.000000" height="36.000000" viewBox="0 0 82 36" fill="none" xmlns="http://www.w3.org/2000/svg" xmlns:xlink="http://www.w3.org/1999/xlink">
	<desc>
			Created with Pixso.
	</desc>
	<defs/>
	<path id="g" d="M81.13 17.24L76.93 17.24L76.93 21.84Q76.56 22.01 76.17 22.13Q75.3 22.4 74.36 22.4Q73.09 22.4 72.08 21.89Q71.98 21.84 71.89 21.79Q71.36 21.49 70.95 21.08Q70.52 20.64 70.21 20.08Q70.17 20.01 70.13 19.94Q69.61 18.89 69.61 17.59Q69.61 15.93 70.37 14.78Q70.61 14.42 70.93 14.11Q71.26 13.77 71.65 13.53Q72.8 12.79 74.41 12.79Q75.36 12.79 76.21 13.09Q77.47 13.54 78.49 14.67L81.51 11.93Q81.15 11.5 80.74 11.13Q79.72 10.21 78.39 9.65Q76.52 8.86 74.17 8.86Q71.61 8.86 69.55 9.87Q69.45 9.92 69.34 9.98Q68.03 10.66 67.07 11.68Q66.47 12.31 66.01 13.08Q65.74 13.54 65.53 14.02Q64.81 15.65 64.81 17.59Q64.81 19.54 65.53 21.17Q65.74 21.65 66.01 22.1Q66.5 22.92 67.14 23.59Q68.07 24.55 69.32 25.22Q69.51 25.32 69.71 25.41Q71.67 26.33 74.07 26.33Q74.14 26.33 74.21 26.33Q76.02 26.31 77.82 25.78Q79.69 25.23 81.13 24.2L81.13 17.24Z" fill="#333333" fill-opacity="1.000000" fill-rule="evenodd"/>
	<path id="2" d="M58 18C58 20.87 57.4 23.59 56.33 26L43 26C45.46 22.22 48 17.66 48 13C48 7 43.93 1.95 38.41 0.45C39.56 0.15 40.76 0 42 0C50.83 0 58 8.05 58 18ZM44 13C44 8.02 39.97 4 35 4C28.34 4 26 12.5 26 18C26 27.94 33.16 36 42 36C46.73 36 50.99 33.68 53.92 30L35 30C35.35 29.55 35.72 29.08 36.09 28.61C39.61 24.2 44 18.69 44 13Z" fill="#7859CF" fill-opacity="1.000000" fill-rule="evenodd"/>
	<path id="D" d="M9.79 9.2L1.85 9.2L1.85 26L9.79 26Q12.56 26 14.69 24.96Q16.2 24.24 17.22 23.09Q17.65 22.6 18 22.04Q18.1 21.88 18.19 21.72Q19.18 19.93 19.18 17.59Q19.18 15.27 18.2 13.49Q18.1 13.32 18 13.16Q17.64 12.58 17.2 12.08Q16.18 10.94 14.69 10.23Q12.56 9.2 9.79 9.2ZM12.58 21.37Q11.38 22.2 9.6 22.2L6.6 22.2L6.6 12.99L9.6 12.99Q11.38 12.99 12.58 13.82Q12.84 14 13.07 14.21Q13.36 14.49 13.59 14.81Q14.38 15.92 14.38 17.59Q14.38 19.28 13.58 20.39Q13.36 20.71 13.07 20.98Q12.84 21.19 12.58 21.37Z" fill="#333333" fill-opacity="1.000000" fill-rule="evenodd"/>
</svg>
