<svg width="22.000000" height="22.000000" viewBox="0 0 22 22" fill="none" xmlns="http://www.w3.org/2000/svg" xmlns:xlink="http://www.w3.org/1999/xlink">
	<desc>
			Created with Pixso.
	</desc>
	<defs/>
	<path id="pinterest" d="M11 0C4.92 0 0 4.92 0 11C0 15.66 2.89 19.64 6.99 21.24C6.89 20.37 6.8 19.03 7.02 18.08C7.22 17.22 8.31 12.62 8.31 12.62C8.31 12.62 7.99 11.96 7.99 10.98C7.99 9.45 8.87 8.31 9.98 8.31C10.91 8.31 11.37 9.02 11.37 9.86C11.37 10.8 10.77 12.22 10.46 13.52C10.2 14.62 11.01 15.51 12.09 15.51C14.04 15.51 15.54 13.45 15.54 10.47C15.54 7.84 13.65 6 10.95 6C7.82 6 5.98 8.35 5.98 10.77C5.98 11.72 6.35 12.73 6.8 13.28C6.89 13.39 6.9 13.49 6.88 13.6C6.79 13.94 6.61 14.69 6.57 14.84C6.52 15.05 6.41 15.09 6.2 14.99C4.83 14.35 3.97 12.34 3.97 10.73C3.97 7.26 6.49 4.07 11.24 4.07C15.05 4.07 18.02 6.79 18.02 10.43C18.02 14.22 15.63 17.27 12.31 17.27C11.2 17.27 10.15 16.69 9.79 16.01C9.79 16.01 9.24 18.11 9.11 18.62C8.86 19.58 8.19 20.77 7.74 21.5C8.77 21.82 9.86 22 11 22C17.07 22 22 17.07 22 11C22 4.92 17.07 0 11 0Z" fill="#BDBDBD" fill-opacity="1.000000" fill-rule="nonzero"/>
</svg>
